<svg xmlns="http://www.w3.org/2000/svg" xmlns:xlink="http://www.w3.org/1999/xlink" width="1080" zoomAndPan="magnify" viewBox="0 0 810 809.999993" height="1080" preserveAspectRatio="xMidYMid meet" version="1.0"><defs><g/><clipPath id="a8c5406c04"><path d="M 367 216.488281 L 496 216.488281 L 496 336 L 367 336 Z M 367 216.488281 " clip-rule="nonzero"/></clipPath><clipPath id="4a448f1ec3"><path d="M 284 281 L 526 281 L 526 441.488281 L 284 441.488281 Z M 284 281 " clip-rule="nonzero"/></clipPath></defs><rect x="-81" width="972" fill="#ffffff" y="-80.999999" height="971.999992" fill-opacity="1"/><rect x="-81" width="972" fill="#13e1aa" y="-80.999999" height="971.999992" fill-opacity="1"/><path fill="#05233b" d="M 503.160156 282.761719 L 491.847656 281.09375 L 409.894531 282.761719 L 407.714844 309.347656 L 524.40625 309.347656 L 523.214844 282.761719 Z M 503.160156 282.761719 " fill-opacity="1" fill-rule="nonzero"/><path fill="#e0f1f0" d="M 407.613281 336.324219 L 392.015625 340.613281 L 391.128906 310.488281 L 287.707031 310.488281 L 287.707031 437.671875 C 287.707031 438.011719 287.964844 438.269531 288.304688 438.269531 L 521.429688 438.269531 C 521.886719 438.269531 522.28125 437.894531 522.28125 437.417969 L 522.28125 310.488281 L 409.621094 310.488281 Z M 351.464844 322.667969 L 353.25 322.667969 C 367.519531 322.667969 379.136719 334.265625 379.136719 348.523438 L 379.136719 350.308594 L 351.464844 350.308594 Z M 341.222656 334.726562 L 343.007812 334.726562 L 343.007812 358.796875 L 367.078125 358.796875 L 367.078125 360.582031 C 367.078125 374.851562 355.476562 386.4375 341.222656 386.4375 C 326.96875 386.4375 315.332031 374.835938 315.332031 360.582031 C 315.332031 346.328125 326.953125 334.726562 341.222656 334.726562 Z M 315.078125 394.398438 L 322.953125 394.398438 C 323.957031 394.398438 324.738281 395.179688 324.738281 396.183594 C 324.738281 397.152344 323.957031 397.96875 322.953125 397.96875 L 315.078125 397.96875 C 314.074219 397.96875 313.292969 397.152344 313.292969 396.183594 C 313.292969 395.179688 314.074219 394.398438 315.078125 394.398438 Z M 315.078125 408.195312 L 363.675781 408.195312 C 364.679688 408.195312 365.460938 409.011719 365.460938 409.980469 C 365.460938 410.984375 364.679688 411.765625 363.675781 411.765625 L 315.078125 411.765625 C 314.074219 411.765625 313.292969 410.984375 313.292969 409.980469 C 313.292969 408.992188 314.074219 408.195312 315.078125 408.195312 Z M 379.394531 425.59375 L 315.078125 425.59375 C 314.109375 425.59375 313.292969 424.777344 313.292969 423.808594 C 313.292969 422.804688 314.109375 422.023438 315.078125 422.023438 L 379.394531 422.023438 C 380.398438 422.023438 381.179688 422.804688 381.179688 423.808594 C 381.179688 424.796875 380.398438 425.59375 379.394531 425.59375 Z M 379.394531 411.765625 L 371.519531 411.765625 C 370.546875 411.765625 369.730469 410.984375 369.730469 409.980469 C 369.730469 409.011719 370.546875 408.195312 371.519531 408.195312 L 379.394531 408.195312 C 380.398438 408.195312 381.179688 409.011719 381.179688 409.980469 C 381.179688 410.984375 380.398438 411.765625 379.394531 411.765625 Z M 379.394531 397.96875 L 330.796875 397.96875 C 329.824219 397.96875 329.007812 397.152344 329.007812 396.183594 C 329.007812 395.179688 329.824219 394.398438 330.796875 394.398438 L 379.394531 394.398438 C 380.398438 394.398438 381.179688 395.179688 381.179688 396.183594 C 381.179688 397.171875 380.398438 397.96875 379.394531 397.96875 Z M 415.933594 372.351562 L 448.777344 372.351562 L 448.777344 346.683594 C 448.777344 341.070312 453.355469 336.496094 458.96875 336.496094 L 476.011719 336.496094 L 476.011719 332.105469 C 476.011719 329.792969 477.898438 327.9375 480.179688 327.9375 L 492.546875 327.9375 C 494.824219 327.9375 496.714844 329.792969 496.714844 332.105469 L 496.714844 344.4375 C 496.714844 346.753906 494.824219 348.605469 492.546875 348.605469 L 480.179688 348.605469 C 477.898438 348.605469 476.011719 346.753906 476.011719 344.4375 L 476.011719 340.050781 L 458.96875 340.050781 C 455.328125 340.050781 452.351562 343.027344 452.351562 346.667969 L 452.351562 372.335938 L 476.027344 372.335938 L 476.027344 367.949219 C 476.027344 365.632812 477.917969 363.78125 480.195312 363.78125 L 492.5625 363.78125 C 494.84375 363.78125 496.730469 365.632812 496.730469 367.949219 L 496.730469 380.28125 C 496.730469 382.558594 494.84375 384.445312 492.5625 384.445312 L 480.195312 384.445312 C 477.917969 384.445312 476.027344 382.558594 476.027344 380.28125 L 476.027344 375.890625 L 452.332031 375.890625 L 452.332031 401.542969 C 452.332031 405.183594 455.308594 408.160156 458.949219 408.160156 L 475.996094 408.160156 L 475.996094 403.769531 C 475.996094 401.492188 477.882812 399.601562 480.164062 399.601562 L 492.527344 399.601562 C 494.808594 399.601562 496.695312 401.492188 496.695312 403.769531 L 496.695312 416.136719 C 496.695312 418.417969 494.808594 420.304688 492.527344 420.304688 L 480.164062 420.304688 C 477.882812 420.304688 475.996094 418.417969 475.996094 416.136719 L 475.996094 411.730469 L 458.949219 411.730469 C 453.335938 411.730469 448.761719 407.15625 448.761719 401.542969 L 448.761719 375.925781 L 415.933594 375.925781 C 414.960938 375.925781 414.144531 375.109375 414.144531 374.140625 C 414.144531 373.136719 414.945312 372.351562 415.933594 372.351562 Z M 415.933594 372.351562 " fill-opacity="1" fill-rule="nonzero"/><path fill="#e0f1f0" d="M 514.949219 265.664062 L 501.152344 262.042969 C 500.199219 261.804688 499.230469 262.382812 498.957031 263.335938 C 498.71875 264.285156 499.300781 265.257812 500.25 265.496094 L 514.046875 269.117188 C 514.21875 269.136719 514.351562 269.167969 514.507812 269.167969 C 515.324219 269.167969 516.035156 268.640625 516.242188 267.84375 C 516.460938 266.871094 515.902344 265.902344 514.949219 265.664062 Z M 514.949219 265.664062 " fill-opacity="1" fill-rule="nonzero"/><path fill="#e0f1f0" d="M 513.875 242.292969 L 500.117188 246.085938 C 499.164062 246.339844 498.617188 247.328125 498.875 248.28125 C 499.09375 249.0625 499.808594 249.589844 500.589844 249.589844 C 500.761719 249.589844 500.933594 249.574219 501.066406 249.523438 L 514.828125 245.730469 C 515.78125 245.472656 516.324219 244.488281 516.070312 243.535156 C 515.800781 242.582031 514.828125 242.039062 513.875 242.292969 Z M 513.875 242.292969 " fill-opacity="1" fill-rule="nonzero"/><path fill="#e0f1f0" d="M 503.773438 222.578125 C 503.074219 221.878906 501.933594 221.878906 501.253906 222.59375 L 491.234375 232.734375 C 490.539062 233.449219 490.574219 234.570312 491.253906 235.285156 C 491.609375 235.625 492.070312 235.777344 492.511719 235.777344 C 492.953125 235.777344 493.449219 235.609375 493.769531 235.25 L 503.789062 225.078125 C 504.488281 224.414062 504.488281 223.273438 503.773438 222.578125 Z M 503.773438 222.578125 " fill-opacity="1" fill-rule="nonzero"/><g clip-path="url(#a8c5406c04)"><path fill="#e0f1f0" d="M 491.847656 268.640625 C 495.164062 262.808594 496.015625 256.019531 494.230469 249.574219 C 490.726562 236.78125 477.867188 229.023438 465.058594 231.59375 L 461.792969 219.738281 C 461.417969 218.324219 460.363281 217.21875 458.984375 216.742188 C 457.625 216.265625 456.109375 216.523438 454.9375 217.40625 L 413.636719 248.605469 C 413.566406 248.65625 413.464844 248.707031 413.378906 248.722656 L 406.371094 250.644531 L 376.109375 258.980469 C 374.988281 259.285156 374.035156 260.035156 373.472656 261.019531 C 372.894531 262.042969 372.742188 263.230469 373.066406 264.355469 L 374.734375 270.445312 C 372.46875 271.449219 370.582031 273.132812 369.359375 275.328125 C 368.355469 277.113281 367.828125 279.070312 367.828125 281.058594 C 367.828125 282.078125 367.960938 283.152344 368.253906 284.171875 C 368.304688 284.308594 368.355469 284.476562 368.386719 284.632812 C 369.273438 287.472656 371.144531 289.769531 373.730469 291.25 C 375.515625 292.25 377.488281 292.777344 379.496094 292.777344 C 379.957031 292.777344 380.398438 292.761719 380.855469 292.710938 L 382.523438 298.785156 C 382.828125 299.90625 383.578125 300.859375 384.597656 301.421875 C 385.261719 301.792969 386.011719 302 386.742188 302 C 387.152344 302 387.523438 301.949219 387.933594 301.828125 L 390.894531 301.011719 L 394.449219 300.042969 L 395.46875 335.933594 L 404.261719 333.5 L 407.136719 296.574219 L 410.777344 295.570312 L 418.175781 293.527344 L 418.195312 293.527344 C 418.296875 293.511719 418.382812 293.460938 418.484375 293.425781 L 425.203125 291.589844 C 425.269531 291.570312 425.390625 291.570312 425.492188 291.570312 L 476.949219 297.269531 C 478.375 297.441406 479.804688 296.863281 480.757812 295.773438 C 481.691406 294.648438 482.015625 293.171875 481.640625 291.777344 L 478.375 279.886719 C 484.074219 277.894531 488.820312 273.949219 491.847656 268.640625 Z M 491.847656 268.640625 " fill-opacity="1" fill-rule="nonzero"/></g><path fill="#e0f1f0" d="M 334.164062 295.789062 C 334.164062 298.238281 336.171875 300.246094 338.621094 300.246094 C 341.070312 300.246094 343.078125 298.238281 343.078125 295.789062 C 343.078125 293.339844 341.070312 291.332031 338.621094 291.332031 C 336.171875 291.332031 334.164062 293.339844 334.164062 295.789062 Z M 334.164062 295.789062 " fill-opacity="1" fill-rule="nonzero"/><path fill="#e0f1f0" d="M 316.304688 295.789062 C 316.304688 298.238281 318.308594 300.246094 320.757812 300.246094 C 323.242188 300.246094 325.214844 298.238281 325.214844 295.789062 C 325.214844 293.339844 323.242188 291.332031 320.757812 291.332031 C 318.308594 291.332031 316.304688 293.339844 316.304688 295.789062 Z M 316.304688 295.789062 " fill-opacity="1" fill-rule="nonzero"/><path fill="#e0f1f0" d="M 302.933594 291.332031 C 300.449219 291.332031 298.476562 293.339844 298.476562 295.789062 C 298.476562 298.238281 300.449219 300.246094 302.933594 300.246094 C 305.382812 300.246094 307.390625 298.238281 307.390625 295.789062 C 307.371094 293.339844 305.382812 291.332031 302.933594 291.332031 Z M 302.933594 291.332031 " fill-opacity="1" fill-rule="nonzero"/><g clip-path="url(#4a448f1ec3)"><path fill="#05233b" d="M 521.683594 281.09375 L 490.945312 281.09375 C 489.941406 281.09375 489.160156 281.910156 489.160156 282.878906 C 489.160156 283.882812 489.941406 284.664062 490.945312 284.664062 L 521.683594 284.664062 C 521.992188 284.664062 522.28125 284.953125 522.28125 285.261719 L 522.28125 306.914062 L 409.875 306.914062 L 410.761719 295.601562 L 407.121094 296.605469 L 404.230469 333.535156 L 395.433594 335.96875 L 394.414062 300.078125 L 390.859375 301.046875 L 387.898438 301.863281 C 387.492188 301.980469 387.117188 302.03125 386.707031 302.03125 C 385.976562 302.03125 385.226562 301.84375 384.566406 301.453125 C 383.542969 300.875 382.796875 299.921875 382.488281 298.816406 L 380.824219 292.746094 C 380.363281 292.796875 379.921875 292.8125 379.460938 292.8125 C 377.453125 292.8125 375.480469 292.285156 373.695312 291.28125 C 371.125 289.800781 369.238281 287.488281 368.355469 284.664062 C 368.304688 284.527344 368.253906 284.359375 368.21875 284.207031 C 367.929688 283.183594 367.792969 282.113281 367.792969 281.09375 L 288.304688 281.09375 C 285.992188 281.09375 284.136719 282.980469 284.136719 285.261719 L 284.136719 437.671875 C 284.136719 439.984375 285.992188 441.839844 288.304688 441.839844 L 521.429688 441.839844 C 523.863281 441.839844 525.851562 439.867188 525.851562 437.417969 L 525.851562 285.261719 C 525.851562 282.980469 523.964844 281.09375 521.683594 281.09375 Z M 338.621094 291.332031 C 341.070312 291.332031 343.078125 293.339844 343.078125 295.789062 C 343.078125 298.238281 341.070312 300.246094 338.621094 300.246094 C 336.171875 300.246094 334.164062 298.238281 334.164062 295.789062 C 334.164062 293.339844 336.171875 291.332031 338.621094 291.332031 Z M 320.757812 291.332031 C 323.242188 291.332031 325.214844 293.339844 325.214844 295.789062 C 325.214844 298.238281 323.242188 300.246094 320.757812 300.246094 C 318.308594 300.246094 316.304688 298.238281 316.304688 295.789062 C 316.304688 293.339844 318.308594 291.332031 320.757812 291.332031 Z M 302.933594 291.332031 C 305.382812 291.332031 307.390625 293.339844 307.390625 295.789062 C 307.390625 298.238281 305.382812 300.246094 302.933594 300.246094 C 300.449219 300.246094 298.476562 298.238281 298.476562 295.789062 C 298.476562 293.339844 300.449219 291.332031 302.933594 291.332031 Z M 522.28125 437.417969 C 522.28125 437.894531 521.871094 438.269531 521.429688 438.269531 L 288.304688 438.269531 C 287.964844 438.269531 287.707031 438.011719 287.707031 437.671875 L 287.707031 310.488281 L 391.128906 310.488281 L 392.015625 340.613281 L 407.613281 336.324219 L 409.621094 310.488281 L 522.28125 310.488281 Z M 522.28125 437.417969 " fill-opacity="1" fill-rule="nonzero"/></g><path fill="#05233b" d="M 415.933594 375.925781 L 448.777344 375.925781 L 448.777344 401.578125 C 448.777344 407.191406 453.355469 411.765625 458.96875 411.765625 L 476.011719 411.765625 L 476.011719 416.171875 C 476.011719 418.449219 477.898438 420.339844 480.179688 420.339844 L 492.546875 420.339844 C 494.824219 420.339844 496.714844 418.449219 496.714844 416.171875 L 496.714844 403.804688 C 496.714844 401.527344 494.824219 399.636719 492.546875 399.636719 L 480.179688 399.636719 C 477.898438 399.636719 476.011719 401.527344 476.011719 403.804688 L 476.011719 408.195312 L 458.96875 408.195312 C 455.328125 408.195312 452.351562 405.214844 452.351562 401.578125 L 452.351562 375.925781 L 476.027344 375.925781 L 476.027344 380.3125 C 476.027344 382.59375 477.917969 384.480469 480.195312 384.480469 L 492.5625 384.480469 C 494.84375 384.480469 496.730469 382.59375 496.730469 380.3125 L 496.730469 367.980469 C 496.730469 365.667969 494.84375 363.8125 492.5625 363.8125 L 480.195312 363.8125 C 477.917969 363.8125 476.027344 365.667969 476.027344 367.980469 L 476.027344 372.371094 L 452.332031 372.371094 L 452.332031 346.683594 C 452.332031 343.042969 455.308594 340.066406 458.949219 340.066406 L 475.996094 340.066406 L 475.996094 344.457031 C 475.996094 346.769531 477.882812 348.625 480.164062 348.625 L 492.527344 348.625 C 494.808594 348.625 496.695312 346.769531 496.695312 344.457031 L 496.695312 332.125 C 496.695312 329.808594 494.808594 327.957031 492.527344 327.957031 L 480.164062 327.957031 C 477.882812 327.957031 475.996094 329.808594 475.996094 332.125 L 475.996094 336.511719 L 458.949219 336.511719 C 453.335938 336.511719 448.761719 341.089844 448.761719 346.703125 L 448.761719 372.371094 L 415.933594 372.371094 C 414.960938 372.371094 414.144531 373.152344 414.144531 374.15625 C 414.144531 375.109375 414.945312 375.925781 415.933594 375.925781 Z M 415.933594 375.925781 " fill-opacity="1" fill-rule="nonzero"/><path fill="#05233b" d="M 379.394531 394.398438 L 330.796875 394.398438 C 329.824219 394.398438 329.007812 395.179688 329.007812 396.183594 C 329.007812 397.152344 329.824219 397.96875 330.796875 397.96875 L 379.394531 397.96875 C 380.398438 397.96875 381.179688 397.152344 381.179688 396.183594 C 381.179688 395.179688 380.398438 394.398438 379.394531 394.398438 Z M 379.394531 394.398438 " fill-opacity="1" fill-rule="nonzero"/><path fill="#05233b" d="M 379.394531 408.195312 L 371.519531 408.195312 C 370.546875 408.195312 369.730469 409.011719 369.730469 409.980469 C 369.730469 410.984375 370.546875 411.765625 371.519531 411.765625 L 379.394531 411.765625 C 380.398438 411.765625 381.179688 410.984375 381.179688 409.980469 C 381.179688 408.992188 380.398438 408.195312 379.394531 408.195312 Z M 379.394531 408.195312 " fill-opacity="1" fill-rule="nonzero"/><path fill="#05233b" d="M 379.394531 422.023438 L 315.078125 422.023438 C 314.109375 422.023438 313.292969 422.804688 313.292969 423.808594 C 313.292969 424.777344 314.109375 425.59375 315.078125 425.59375 L 379.394531 425.59375 C 380.398438 425.59375 381.179688 424.777344 381.179688 423.808594 C 381.179688 422.804688 380.398438 422.023438 379.394531 422.023438 Z M 379.394531 422.023438 " fill-opacity="1" fill-rule="nonzero"/><path fill="#05233b" d="M 379.136719 348.539062 C 379.136719 334.265625 367.519531 322.683594 353.25 322.683594 L 351.464844 322.683594 L 351.464844 350.324219 L 379.136719 350.324219 Z M 379.136719 348.539062 " fill-opacity="1" fill-rule="nonzero"/><path fill="#05233b" d="M 341.222656 386.453125 C 355.496094 386.453125 367.078125 374.851562 367.078125 360.597656 L 367.078125 358.8125 L 343.007812 358.8125 L 343.007812 334.742188 L 341.222656 334.742188 C 326.953125 334.742188 315.332031 346.34375 315.332031 360.597656 C 315.332031 374.851562 326.953125 386.453125 341.222656 386.453125 Z M 341.222656 386.453125 " fill-opacity="1" fill-rule="nonzero"/><path fill="#05233b" d="M 315.078125 411.765625 L 363.675781 411.765625 C 364.679688 411.765625 365.460938 410.984375 365.460938 409.980469 C 365.460938 409.011719 364.679688 408.195312 363.675781 408.195312 L 315.078125 408.195312 C 314.074219 408.195312 313.292969 409.011719 313.292969 409.980469 C 313.292969 410.984375 314.074219 411.765625 315.078125 411.765625 Z M 315.078125 411.765625 " fill-opacity="1" fill-rule="nonzero"/><path fill="#05233b" d="M 315.078125 397.96875 L 322.953125 397.96875 C 323.957031 397.96875 324.738281 397.152344 324.738281 396.183594 C 324.738281 395.179688 323.957031 394.398438 322.953125 394.398438 L 315.078125 394.398438 C 314.074219 394.398438 313.292969 395.179688 313.292969 396.183594 C 313.292969 397.171875 314.074219 397.96875 315.078125 397.96875 Z M 315.078125 397.96875 " fill-opacity="1" fill-rule="nonzero"/><g fill="#05233b" fill-opacity="1"><g transform="translate(144.838126, 535.847255)"><g><path d="M 3.09375 0 L 2.875 -3.6875 L 7.234375 -4.875 C 7.378906 -5.070312 7.476562 -5.660156 7.53125 -6.640625 C 7.582031 -7.628906 7.628906 -8.921875 7.671875 -10.515625 C 7.722656 -12.117188 7.75 -13.90625 7.75 -15.875 L 7.828125 -27.75 C 7.828125 -29.625 7.800781 -31.347656 7.75 -32.921875 C 7.695312 -34.492188 7.644531 -35.796875 7.59375 -36.828125 C 7.550781 -37.867188 7.457031 -38.488281 7.3125 -38.6875 L 2.65625 -39.640625 L 2.875 -43.328125 L 21.625 -43.328125 C 27.675781 -43.328125 32.191406 -42.234375 35.171875 -40.046875 C 38.148438 -37.859375 39.640625 -34.722656 39.640625 -30.640625 C 39.640625 -27.929688 38.925781 -25.492188 37.5 -23.328125 C 36.070312 -21.160156 34.015625 -19.445312 31.328125 -18.1875 C 28.648438 -16.9375 25.414062 -16.3125 21.625 -16.3125 C 20.789062 -16.3125 19.953125 -16.359375 19.109375 -16.453125 C 18.273438 -16.554688 17.488281 -16.679688 16.75 -16.828125 L 16.75 -21.921875 C 17.289062 -21.679688 17.976562 -21.472656 18.8125 -21.296875 C 19.65625 -21.128906 20.59375 -21.046875 21.625 -21.046875 C 23.988281 -21.046875 25.8125 -21.78125 27.09375 -23.25 C 28.375 -24.726562 29.015625 -26.867188 29.015625 -29.671875 C 29.015625 -32.972656 28.203125 -35.382812 26.578125 -36.90625 C 24.953125 -38.4375 22.738281 -39.203125 19.9375 -39.203125 L 17.859375 -39.203125 C 17.859375 -38.804688 17.847656 -38.140625 17.828125 -37.203125 C 17.804688 -36.265625 17.78125 -35.019531 17.75 -33.46875 C 17.726562 -31.925781 17.71875 -30.019531 17.71875 -27.75 L 17.796875 -15.875 C 17.796875 -13.90625 17.832031 -12.117188 17.90625 -10.515625 C 17.976562 -8.921875 18.050781 -7.640625 18.125 -6.671875 C 18.195312 -5.710938 18.257812 -5.140625 18.3125 -4.953125 L 24.28125 -3.84375 L 24.0625 0 Z M 3.09375 0 "/></g></g></g><g fill="#05233b" fill-opacity="1"><g transform="translate(186.836953, 535.847255)"><g><path d="M 3.09375 0 L 2.875 -3.6875 L 7.609375 -4.953125 C 7.609375 -5.242188 7.617188 -5.804688 7.640625 -6.640625 C 7.660156 -7.484375 7.679688 -8.46875 7.703125 -9.59375 C 7.734375 -10.726562 7.757812 -11.882812 7.78125 -13.0625 C 7.8125 -14.25 7.828125 -15.304688 7.828125 -16.234375 L 7.828125 -27.015625 C 7.828125 -29.085938 7.800781 -30.945312 7.75 -32.59375 C 7.695312 -34.238281 7.632812 -35.578125 7.5625 -36.609375 C 7.488281 -37.648438 7.40625 -38.269531 7.3125 -38.46875 L 2.578125 -39.640625 L 2.8125 -43.328125 L 21.921875 -43.328125 C 27.585938 -43.328125 31.769531 -42.425781 34.46875 -40.625 C 37.175781 -38.832031 38.53125 -35.992188 38.53125 -32.109375 C 38.53125 -29.703125 37.789062 -27.550781 36.3125 -25.65625 C 34.84375 -23.757812 32.816406 -22.269531 30.234375 -21.1875 C 27.648438 -20.101562 24.679688 -19.5625 21.328125 -19.5625 L 16.53125 -19.5625 L 16.53125 -23.84375 L 19.859375 -23.84375 C 22.316406 -23.84375 24.296875 -24.59375 25.796875 -26.09375 C 27.296875 -27.59375 28.046875 -29.597656 28.046875 -32.109375 C 28.046875 -34.421875 27.414062 -36.179688 26.15625 -37.390625 C 24.90625 -38.597656 23.078125 -39.203125 20.671875 -39.203125 L 17.859375 -39.203125 C 17.816406 -39.054688 17.78125 -38.632812 17.75 -37.9375 C 17.726562 -37.25 17.71875 -36.375 17.71875 -35.3125 C 17.71875 -34.257812 17.71875 -33.082031 17.71875 -31.78125 C 17.71875 -30.476562 17.71875 -29.085938 17.71875 -27.609375 L 17.71875 -16.234375 C 17.71875 -14.960938 17.726562 -13.5625 17.75 -12.03125 C 17.78125 -10.507812 17.816406 -9.09375 17.859375 -7.78125 C 17.910156 -6.476562 17.960938 -5.535156 18.015625 -4.953125 L 22.140625 -3.6875 L 21.921875 0 Z M 41.640625 0.890625 C 38.878906 0.890625 36.425781 0.445312 34.28125 -0.4375 C 32.144531 -1.320312 30.226562 -2.695312 28.53125 -4.5625 C 26.832031 -6.4375 25.316406 -8.800781 23.984375 -11.65625 L 19.78125 -20.75 L 27.984375 -22.65625 L 36.765625 -10.40625 C 37.796875 -8.976562 38.800781 -7.769531 39.78125 -6.78125 C 40.769531 -5.800781 41.804688 -5.003906 42.890625 -4.390625 C 43.972656 -3.773438 45.128906 -3.296875 46.359375 -2.953125 L 46.28125 0.4375 C 45.5 0.59375 44.722656 0.707031 43.953125 0.78125 C 43.191406 0.851562 42.421875 0.890625 41.640625 0.890625 Z M 41.640625 0.890625 "/></g></g></g><g fill="#05233b" fill-opacity="1"><g transform="translate(232.969232, 535.847255)"><g><path d="M 26.578125 0.671875 C 22.046875 0.671875 18.019531 -0.265625 14.5 -2.140625 C 10.988281 -4.015625 8.234375 -6.585938 6.234375 -9.859375 C 4.242188 -13.128906 3.25 -16.878906 3.25 -21.109375 C 3.25 -25.535156 4.242188 -29.472656 6.234375 -32.921875 C 8.234375 -36.367188 11.003906 -39.078125 14.546875 -41.046875 C 18.085938 -43.015625 22.125 -44 26.65625 -44 C 31.03125 -44 34.890625 -43.078125 38.234375 -41.234375 C 41.585938 -39.390625 44.222656 -36.84375 46.140625 -33.59375 C 48.054688 -30.34375 49.015625 -26.550781 49.015625 -22.21875 C 49.015625 -18.425781 48.3125 -15.101562 46.90625 -12.25 C 45.507812 -9.394531 43.691406 -7.007812 41.453125 -5.09375 C 39.210938 -3.175781 36.785156 -1.734375 34.171875 -0.765625 C 31.566406 0.191406 29.035156 0.671875 26.578125 0.671875 Z M 27.171875 -4.875 C 29.429688 -4.875 31.320312 -5.472656 32.84375 -6.671875 C 34.375 -7.878906 35.519531 -9.640625 36.28125 -11.953125 C 37.039062 -14.265625 37.421875 -17.070312 37.421875 -20.375 C 37.421875 -24.164062 36.925781 -27.460938 35.9375 -30.265625 C 34.957031 -33.066406 33.609375 -35.242188 31.890625 -36.796875 C 30.171875 -38.347656 28.128906 -39.125 25.765625 -39.125 C 22.367188 -39.125 19.707031 -37.71875 17.78125 -34.90625 C 15.863281 -32.101562 14.90625 -28.21875 14.90625 -23.25 C 14.90625 -19.613281 15.4375 -16.414062 16.5 -13.65625 C 17.5625 -10.894531 19 -8.738281 20.8125 -7.1875 C 22.632812 -5.644531 24.753906 -4.875 27.171875 -4.875 Z M 27.171875 -4.875 "/></g></g></g><g fill="#05233b" fill-opacity="1"><g transform="translate(285.227878, 535.847255)"><g><path d="M 2.8125 -43.328125 L 23.1875 -43.328125 C 31.15625 -43.328125 37.378906 -41.46875 41.859375 -37.75 C 46.335938 -34.039062 48.578125 -28.863281 48.578125 -22.21875 C 48.578125 -17.9375 47.515625 -14.109375 45.390625 -10.734375 C 43.273438 -7.367188 40.359375 -4.738281 36.640625 -2.84375 C 32.929688 -0.945312 28.691406 0 23.921875 0 L 2.8125 0 L 2.578125 -3.6875 L 7.3125 -4.875 C 7.457031 -5.21875 7.578125 -6.457031 7.671875 -8.59375 C 7.773438 -10.738281 7.828125 -13.285156 7.828125 -16.234375 L 7.828125 -27.015625 C 7.828125 -30.117188 7.773438 -32.738281 7.671875 -34.875 C 7.578125 -37.019531 7.457031 -38.21875 7.3125 -38.46875 L 2.578125 -39.640625 Z M 17.9375 -38.390625 C 17.9375 -38.085938 17.921875 -37.457031 17.890625 -36.5 C 17.867188 -35.539062 17.847656 -34.285156 17.828125 -32.734375 C 17.804688 -31.191406 17.796875 -29.285156 17.796875 -27.015625 L 17.796875 -16.234375 C 17.796875 -14.960938 17.804688 -13.625 17.828125 -12.21875 C 17.847656 -10.8125 17.894531 -9.515625 17.96875 -8.328125 C 18.050781 -7.148438 18.113281 -6.21875 18.15625 -5.53125 C 19.289062 -5.332031 20.410156 -5.171875 21.515625 -5.046875 C 22.628906 -4.929688 23.675781 -4.875 24.65625 -4.875 C 28.84375 -4.875 32.003906 -6.078125 34.140625 -8.484375 C 36.285156 -10.898438 37.359375 -14.71875 37.359375 -19.9375 C 37.359375 -23.375 36.960938 -26.296875 36.171875 -28.703125 C 35.378906 -31.117188 34.296875 -33.066406 32.921875 -34.546875 C 31.546875 -36.023438 29.972656 -37.109375 28.203125 -37.796875 C 26.429688 -38.484375 24.535156 -38.828125 22.515625 -38.828125 C 21.828125 -38.828125 21.085938 -38.789062 20.296875 -38.71875 C 19.515625 -38.644531 18.726562 -38.535156 17.9375 -38.390625 Z M 17.9375 -38.390625 "/></g></g></g><g fill="#05233b" fill-opacity="1"><g transform="translate(337.412713, 535.847255)"><g><path d="M 2.65625 -43.328125 L 22.4375 -43.328125 L 22.65625 -39.640625 L 17.9375 -38.390625 C 17.882812 -37.898438 17.832031 -37.125 17.78125 -36.0625 C 17.738281 -35 17.691406 -33.71875 17.640625 -32.21875 C 17.585938 -30.71875 17.5625 -28.984375 17.5625 -27.015625 L 17.5625 -19.421875 C 17.5625 -16.566406 17.96875 -14.15625 18.78125 -12.1875 C 19.59375 -10.21875 20.785156 -8.738281 22.359375 -7.75 C 23.941406 -6.769531 25.863281 -6.28125 28.125 -6.28125 C 30.382812 -6.28125 32.265625 -6.757812 33.765625 -7.71875 C 35.273438 -8.675781 36.394531 -10.140625 37.125 -12.109375 C 37.863281 -14.078125 38.234375 -16.535156 38.234375 -19.484375 L 38.234375 -25.6875 C 38.234375 -27.945312 38.207031 -30.015625 38.15625 -31.890625 C 38.113281 -33.765625 38.054688 -35.28125 37.984375 -36.4375 C 37.910156 -37.59375 37.820312 -38.242188 37.71875 -38.390625 L 32.5625 -39.640625 L 32.78125 -43.328125 L 49.234375 -43.328125 L 49.453125 -39.640625 L 44.734375 -38.390625 C 44.679688 -38.242188 44.617188 -37.59375 44.546875 -36.4375 C 44.472656 -35.28125 44.410156 -33.765625 44.359375 -31.890625 C 44.316406 -30.015625 44.296875 -27.945312 44.296875 -25.6875 L 44.296875 -18.234375 C 44.296875 -14.347656 43.582031 -10.988281 42.15625 -8.15625 C 40.726562 -5.320312 38.695312 -3.140625 36.0625 -1.609375 C 33.425781 -0.0859375 30.3125 0.671875 26.71875 0.671875 C 20.570312 0.671875 15.835938 -0.960938 12.515625 -4.234375 C 9.191406 -7.515625 7.53125 -12.15625 7.53125 -18.15625 L 7.53125 -27.015625 C 7.53125 -29.085938 7.503906 -30.957031 7.453125 -32.625 C 7.398438 -34.300781 7.347656 -35.644531 7.296875 -36.65625 C 7.253906 -37.664062 7.207031 -38.242188 7.15625 -38.390625 L 2.4375 -39.640625 Z M 2.65625 -43.328125 "/></g></g></g><g fill="#05233b" fill-opacity="1"><g transform="translate(389.228489, 535.847255)"><g><path d="M 27.609375 0.671875 C 22.835938 0.671875 18.628906 -0.175781 14.984375 -1.875 C 11.335938 -3.570312 8.492188 -6.03125 6.453125 -9.25 C 4.410156 -12.476562 3.390625 -16.382812 3.390625 -20.96875 C 3.390625 -24.507812 4.015625 -27.707031 5.265625 -30.5625 C 6.523438 -33.414062 8.320312 -35.835938 10.65625 -37.828125 C 13 -39.828125 15.742188 -41.351562 18.890625 -42.40625 C 22.046875 -43.46875 25.492188 -44 29.234375 -44 C 31.492188 -44 33.753906 -43.765625 36.015625 -43.296875 C 38.285156 -42.828125 40.207031 -42.222656 41.78125 -41.484375 L 42.296875 -30.1875 L 37.71875 -29.890625 L 35.140625 -37.65625 C 34.203125 -38.144531 33.164062 -38.507812 32.03125 -38.75 C 30.90625 -39 29.75 -39.125 28.5625 -39.125 C 25.707031 -39.125 23.296875 -38.457031 21.328125 -37.125 C 19.359375 -35.800781 17.859375 -33.90625 16.828125 -31.4375 C 15.796875 -28.976562 15.28125 -26.078125 15.28125 -22.734375 C 15.28125 -18.941406 15.90625 -15.679688 17.15625 -12.953125 C 18.414062 -10.222656 20.101562 -8.117188 22.21875 -6.640625 C 24.332031 -5.160156 26.695312 -4.421875 29.3125 -4.421875 C 30.6875 -4.421875 32.023438 -4.601562 33.328125 -4.96875 C 34.628906 -5.34375 35.722656 -5.898438 36.609375 -6.640625 L 39.265625 -13.4375 L 44.21875 -12.921875 L 42.078125 -3.09375 C 40.554688 -2.113281 38.476562 -1.238281 35.84375 -0.46875 C 33.207031 0.289062 30.460938 0.671875 27.609375 0.671875 Z M 27.609375 0.671875 "/></g></g></g><g fill="#05233b" fill-opacity="1"><g transform="translate(435.139333, 535.847255)"><g><path d="M 42.296875 -43.703125 L 44 -30.640625 L 39.421875 -30.265625 L 36.46875 -38.75 C 35.976562 -38.851562 35.460938 -38.914062 34.921875 -38.9375 C 34.378906 -38.96875 33.785156 -38.984375 33.140625 -38.984375 L 30.640625 -38.984375 C 30.191406 -38.984375 29.6875 -38.984375 29.125 -38.984375 C 28.5625 -38.984375 28.128906 -38.929688 27.828125 -38.828125 C 27.828125 -38.535156 27.8125 -37.625 27.78125 -36.09375 C 27.757812 -34.570312 27.738281 -32.753906 27.71875 -30.640625 C 27.695312 -28.523438 27.6875 -26.382812 27.6875 -24.21875 L 27.6875 -17.34375 C 27.6875 -14.59375 27.707031 -12.109375 27.75 -9.890625 C 27.800781 -7.671875 27.851562 -6 27.90625 -4.875 L 34.328125 -3.84375 L 34.109375 0 L 11.140625 0 L 10.921875 -3.84375 L 17.34375 -4.875 C 17.394531 -6 17.441406 -7.671875 17.484375 -9.890625 C 17.535156 -12.109375 17.5625 -14.59375 17.5625 -17.34375 L 17.5625 -24.21875 C 17.5625 -26.382812 17.550781 -28.523438 17.53125 -30.640625 C 17.507812 -32.753906 17.5 -34.570312 17.5 -36.09375 C 17.5 -37.625 17.472656 -38.535156 17.421875 -38.828125 C 17.128906 -38.929688 16.695312 -38.984375 16.125 -38.984375 C 15.5625 -38.984375 15.054688 -38.984375 14.609375 -38.984375 L 12.03125 -38.984375 C 11.4375 -38.984375 10.832031 -38.96875 10.21875 -38.9375 C 9.601562 -38.914062 9.050781 -38.851562 8.5625 -38.75 L 5.765625 -30.125 L 1.1875 -30.5625 L 2.734375 -43.703125 C 3.222656 -43.703125 3.921875 -43.675781 4.828125 -43.625 C 5.742188 -43.582031 6.707031 -43.535156 7.71875 -43.484375 C 8.726562 -43.429688 9.710938 -43.390625 10.671875 -43.359375 C 11.628906 -43.335938 12.453125 -43.328125 13.140625 -43.328125 L 31.890625 -43.328125 C 32.578125 -43.328125 33.390625 -43.335938 34.328125 -43.359375 C 35.265625 -43.390625 36.25 -43.429688 37.28125 -43.484375 C 38.3125 -43.535156 39.269531 -43.582031 40.15625 -43.625 C 41.039062 -43.675781 41.753906 -43.703125 42.296875 -43.703125 Z M 42.296875 -43.703125 "/></g></g></g><g fill="#05233b" fill-opacity="1"><g transform="translate(480.385873, 535.847255)"><g><path d="M 2.8125 0 L 2.578125 -3.6875 L 7.234375 -4.875 C 7.328125 -5.113281 7.410156 -5.75 7.484375 -6.78125 C 7.566406 -7.820312 7.628906 -9.164062 7.671875 -10.8125 C 7.722656 -12.457031 7.75 -14.265625 7.75 -16.234375 L 7.75 -27.015625 C 7.75 -29.085938 7.722656 -30.945312 7.671875 -32.59375 C 7.628906 -34.238281 7.566406 -35.585938 7.484375 -36.640625 C 7.410156 -37.703125 7.328125 -38.3125 7.234375 -38.46875 L 2.578125 -39.640625 L 2.8125 -43.328125 L 22.65625 -43.328125 L 22.890625 -39.640625 L 18.15625 -38.46875 C 18.0625 -38.269531 17.976562 -37.640625 17.90625 -36.578125 C 17.832031 -35.515625 17.78125 -34.160156 17.75 -32.515625 C 17.726562 -30.867188 17.71875 -29.035156 17.71875 -27.015625 L 17.71875 -16.234375 C 17.71875 -14.316406 17.726562 -12.546875 17.75 -10.921875 C 17.78125 -9.296875 17.832031 -7.953125 17.90625 -6.890625 C 17.976562 -5.835938 18.0625 -5.164062 18.15625 -4.875 L 22.890625 -3.6875 L 22.65625 0 Z M 2.8125 0 "/></g></g></g><g fill="#05233b" fill-opacity="1"><g transform="translate(505.850891, 535.847255)"><g><path d="M 20.515625 0.21875 L 3.390625 -38.46875 L -0.4375 -39.796875 L -0.21875 -43.328125 L 19.1875 -43.328125 L 19.421875 -39.640625 L 14.84375 -38.46875 L 27.015625 -9.8125 L 24.0625 -9.8125 L 35.21875 -38.46875 L 30.046875 -39.640625 L 30.265625 -43.328125 L 45.40625 -43.328125 L 45.703125 -39.796875 L 41.859375 -38.46875 L 24.4375 0.21875 Z M 20.515625 0.21875 "/></g></g></g><g fill="#05233b" fill-opacity="1"><g transform="translate(551.171243, 535.847255)"><g><path d="M 2.8125 0 L 2.578125 -3.6875 L 7.234375 -4.875 C 7.328125 -5.113281 7.410156 -5.75 7.484375 -6.78125 C 7.566406 -7.820312 7.628906 -9.164062 7.671875 -10.8125 C 7.722656 -12.457031 7.75 -14.265625 7.75 -16.234375 L 7.75 -27.015625 C 7.75 -29.085938 7.722656 -30.945312 7.671875 -32.59375 C 7.628906 -34.238281 7.566406 -35.585938 7.484375 -36.640625 C 7.410156 -37.703125 7.328125 -38.3125 7.234375 -38.46875 L 2.578125 -39.640625 L 2.8125 -43.328125 L 22.65625 -43.328125 L 22.890625 -39.640625 L 18.15625 -38.46875 C 18.0625 -38.269531 17.976562 -37.640625 17.90625 -36.578125 C 17.832031 -35.515625 17.78125 -34.160156 17.75 -32.515625 C 17.726562 -30.867188 17.71875 -29.035156 17.71875 -27.015625 L 17.71875 -16.234375 C 17.71875 -14.316406 17.726562 -12.546875 17.75 -10.921875 C 17.78125 -9.296875 17.832031 -7.953125 17.90625 -6.890625 C 17.976562 -5.835938 18.0625 -5.164062 18.15625 -4.875 L 22.890625 -3.6875 L 22.65625 0 Z M 2.8125 0 "/></g></g></g><g fill="#05233b" fill-opacity="1"><g transform="translate(576.636261, 535.847255)"><g><path d="M 42.296875 -43.703125 L 44 -30.640625 L 39.421875 -30.265625 L 36.46875 -38.75 C 35.976562 -38.851562 35.460938 -38.914062 34.921875 -38.9375 C 34.378906 -38.96875 33.785156 -38.984375 33.140625 -38.984375 L 30.640625 -38.984375 C 30.191406 -38.984375 29.6875 -38.984375 29.125 -38.984375 C 28.5625 -38.984375 28.128906 -38.929688 27.828125 -38.828125 C 27.828125 -38.535156 27.8125 -37.625 27.78125 -36.09375 C 27.757812 -34.570312 27.738281 -32.753906 27.71875 -30.640625 C 27.695312 -28.523438 27.6875 -26.382812 27.6875 -24.21875 L 27.6875 -17.34375 C 27.6875 -14.59375 27.707031 -12.109375 27.75 -9.890625 C 27.800781 -7.671875 27.851562 -6 27.90625 -4.875 L 34.328125 -3.84375 L 34.109375 0 L 11.140625 0 L 10.921875 -3.84375 L 17.34375 -4.875 C 17.394531 -6 17.441406 -7.671875 17.484375 -9.890625 C 17.535156 -12.109375 17.5625 -14.59375 17.5625 -17.34375 L 17.5625 -24.21875 C 17.5625 -26.382812 17.550781 -28.523438 17.53125 -30.640625 C 17.507812 -32.753906 17.5 -34.570312 17.5 -36.09375 C 17.5 -37.625 17.472656 -38.535156 17.421875 -38.828125 C 17.128906 -38.929688 16.695312 -38.984375 16.125 -38.984375 C 15.5625 -38.984375 15.054688 -38.984375 14.609375 -38.984375 L 12.03125 -38.984375 C 11.4375 -38.984375 10.832031 -38.96875 10.21875 -38.9375 C 9.601562 -38.914062 9.050781 -38.851562 8.5625 -38.75 L 5.765625 -30.125 L 1.1875 -30.5625 L 2.734375 -43.703125 C 3.222656 -43.703125 3.921875 -43.675781 4.828125 -43.625 C 5.742188 -43.582031 6.707031 -43.535156 7.71875 -43.484375 C 8.726562 -43.429688 9.710938 -43.390625 10.671875 -43.359375 C 11.628906 -43.335938 12.453125 -43.328125 13.140625 -43.328125 L 31.890625 -43.328125 C 32.578125 -43.328125 33.390625 -43.335938 34.328125 -43.359375 C 35.265625 -43.390625 36.25 -43.429688 37.28125 -43.484375 C 38.3125 -43.535156 39.269531 -43.582031 40.15625 -43.625 C 41.039062 -43.675781 41.753906 -43.703125 42.296875 -43.703125 Z M 42.296875 -43.703125 "/></g></g></g><g fill="#05233b" fill-opacity="1"><g transform="translate(621.882801, 535.847255)"><g><path d="M 38.984375 -38.46875 L 23.328125 -13.515625 L 26.5 -20.890625 L 26.5 -13.515625 C 26.5 -12.628906 26.507812 -11.703125 26.53125 -10.734375 C 26.5625 -9.773438 26.585938 -8.890625 26.609375 -8.078125 C 26.640625 -7.265625 26.691406 -6.5625 26.765625 -5.96875 C 26.835938 -5.382812 26.894531 -5.019531 26.9375 -4.875 L 32.109375 -3.765625 L 31.890625 0 L 11.296875 0 L 11.078125 -3.765625 L 16.234375 -4.875 C 16.285156 -5.019531 16.335938 -5.382812 16.390625 -5.96875 C 16.441406 -6.5625 16.488281 -7.265625 16.53125 -8.078125 C 16.582031 -8.890625 16.609375 -9.773438 16.609375 -10.734375 C 16.609375 -11.703125 16.609375 -12.628906 16.609375 -13.515625 L 16.609375 -20.890625 L 19.046875 -13.515625 L 4.28125 -38.46875 L 0.515625 -39.640625 L 0.734375 -43.328125 L 20.234375 -43.328125 L 20.453125 -39.640625 L 15.796875 -38.46875 L 25.171875 -22.296875 L 23.40625 -22.296875 L 32.78125 -38.46875 L 27.609375 -39.640625 L 27.828125 -43.328125 L 42.515625 -43.328125 L 42.75 -39.640625 Z M 38.984375 -38.46875 "/></g></g></g><g fill="#05233b" fill-opacity="1"><g transform="translate(334.258057, 585.203369)"><g><path d="M 8.765625 0 C 16.535156 0 20.828125 -4.140625 20.828125 -11.515625 C 20.828125 -18.921875 16.566406 -23.066406 8.765625 -23.066406 L 2.054688 -23.066406 L 2.054688 0 Z M 6.410156 -19.164062 L 8.734375 -19.164062 C 13.390625 -19.164062 16.476562 -16.867188 16.476562 -11.515625 C 16.476562 -5.804688 13.300781 -3.898438 8.707031 -3.898438 L 6.410156 -3.898438 Z M 6.410156 -19.164062 "/></g></g></g><g fill="#05233b" fill-opacity="1"><g transform="translate(369.233487, 585.203369)"><g><path d="M 4.777344 0 L 6.316406 -4.746094 L 15.113281 -4.746094 L 16.6875 0 L 21.25 0 L 13.121094 -23.066406 L 8.34375 -23.066406 L 0.210938 0 Z M 10.730469 -18.320312 L 13.90625 -8.554688 L 7.558594 -8.554688 Z M 10.730469 -18.320312 "/></g></g></g><g fill="#05233b" fill-opacity="1"><g transform="translate(403.664896, 585.203369)"><g><path d="M 6.410156 0 L 6.410156 -23.066406 L 2.054688 -23.066406 L 2.054688 0 Z M 6.410156 0 "/></g></g></g><g fill="#05233b" fill-opacity="1"><g transform="translate(425.100364, 585.203369)"><g><path d="M 16.171875 0 L 16.171875 -3.898438 L 6.410156 -3.898438 L 6.410156 -23.066406 L 2.054688 -23.066406 L 2.054688 0 Z M 16.171875 0 "/></g></g></g><g fill="#05233b" fill-opacity="1"><g transform="translate(454.575169, 585.203369)"><g><path d="M 12.878906 0 L 12.878906 -9.039062 L 21.25 -23.066406 L 16.203125 -23.066406 L 10.582031 -13.269531 L 4.988281 -23.066406 L -0.0898438 -23.066406 L 8.3125 -9.039062 L 8.3125 0 Z M 12.878906 0 "/></g></g></g></svg>